<?xml version="1.0" encoding="UTF-8"?><svg id="Capa_2" xmlns="http://www.w3.org/2000/svg" xmlns:xlink="http://www.w3.org/1999/xlink" viewBox="0 0 84.63 19.19"><defs><style>.cls-1{fill:url(#Degradado_sin_nombre_12);}.cls-1,.cls-2,.cls-3,.cls-4,.cls-5,.cls-6,.cls-7,.cls-8,.cls-9,.cls-10{stroke-width:0px;}.cls-2{fill:url(#Degradado_sin_nombre_12-3);}.cls-3{fill:url(#Degradado_sin_nombre_12-6);}.cls-4{fill:url(#Degradado_sin_nombre_12-8);}.cls-5{fill:url(#Degradado_sin_nombre_12-7);}.cls-6{fill:url(#Degradado_sin_nombre_12-4);}.cls-7{fill:#fff;}.cls-8{fill:url(#Degradado_sin_nombre_12-9);}.cls-9{fill:url(#Degradado_sin_nombre_12-5);}.cls-10{fill:url(#Degradado_sin_nombre_12-2);}</style><linearGradient id="Degradado_sin_nombre_12" x1="30.43" y1="18.67" x2="44.89" y2="24.44" gradientUnits="userSpaceOnUse"><stop offset="0" stop-color="#574bcd"/><stop offset=".49" stop-color="#2999ad"/><stop offset="1" stop-color="#41e976"/></linearGradient><linearGradient id="Degradado_sin_nombre_12-2" x1="30.95" y1="17.37" x2="45.41" y2="23.13" xlink:href="#Degradado_sin_nombre_12"/><linearGradient id="Degradado_sin_nombre_12-3" x1="31.43" y1="16.18" x2="45.89" y2="21.94" xlink:href="#Degradado_sin_nombre_12"/><linearGradient id="Degradado_sin_nombre_12-4" x1="31.95" y1="14.86" x2="46.41" y2="20.62" xlink:href="#Degradado_sin_nombre_12"/><linearGradient id="Degradado_sin_nombre_12-5" x1="32.36" y1="13.84" x2="46.82" y2="19.61" xlink:href="#Degradado_sin_nombre_12"/><linearGradient id="Degradado_sin_nombre_12-6" x1="32.83" y1="12.66" x2="47.29" y2="18.43" xlink:href="#Degradado_sin_nombre_12"/><linearGradient id="Degradado_sin_nombre_12-7" x1="33.26" y1="11.59" x2="47.72" y2="17.35" xlink:href="#Degradado_sin_nombre_12"/><linearGradient id="Degradado_sin_nombre_12-8" x1="33.67" y1="10.54" x2="48.14" y2="16.3" xlink:href="#Degradado_sin_nombre_12"/><linearGradient id="Degradado_sin_nombre_12-9" x1="34.1" y1="9.47" x2="48.56" y2="15.24" xlink:href="#Degradado_sin_nombre_12"/></defs><g id="Capa_1-2"><path class="cls-7" d="m31.13.04c-2.13,1.51-4.2,3.09-6.19,4.77-1.46,1.24-2.88,2.52-4.36,3.73-.14.11-.29.22-.43.34.57-1.37,1.12-2.74,1.64-4.13,0-.01,0-.02,0-.03,0,0,0,0,0,0,.1-.03.08-.11.03-.2.01-.35-.2-.7-.45-.92-.2-.18-.81-.5-.96-.08,0,.01,0,.02-.01.03,0,0,0,0,0,0-3.32,1.01-6.63,2.1-10.02,2.88-1.66.38-3.35.69-5.05.88-.79.09-1.6.17-2.4.14-.56-.02-1.51-.12-1.85-.4-.16-.13-.8-.69-1.04-.55-.24.13.27.54.37.62,1.08.89,2.3,1.4,3.69,1.49,1.37.09,2.77-.12,4.12-.32,2.94-.44,5.82-1.21,8.67-2.06.94-.28,1.87-.57,2.81-.85-.76,1.94-1.58,3.86-2.44,5.76-.22.47.38,1.26.87,1.43.1.06.2.07.27.02,0,0,0,0,0,0,.07-.02.14-.07.19-.14,3.32-2.42,6.28-5.25,9.5-7.79.17-.13.34-.26.51-.39-1.97,3.43-3.87,6.9-5.94,10.27-.41.67-.74,1.35-.6,2.16.14.8.63,1.69,1.38,2.05.37.18.35-.32.29-.54-.08-.31-.28-.73-.57-.96.08-.18.11-.43.2-.61.18-.37.42-.71.63-1.06.45-.73.89-1.47,1.33-2.21.73-1.25,1.45-2.51,2.16-3.77,1.5-2.67,3-5.33,4.61-7.94.22-.36-.55-1.89-.97-1.59Z"/><path class="cls-7" d="m40.07,7.63c-.2-.74-.62-1.24-1.17-1.57-.15-.16-.34-.34-.35-.22,0,.01,0,.03,0,.04-.96-.41-2.18-.4-3.25-.21-.03-.35-.33-.68-.66-.77-2.37-.65-4.58.97-5.85,2.86-.62.92-1.08,1.97-.97,3.1.13,1.28.89,2.24,2.06,2.76,2.05.9,4.56.18,6.46-.76.33-.16.67-.35,1.01-.56-.04.16-.07.32-.11.48-.02.09.14.35.17.41.12.21.26.42.4.61.06.08.49.62.53.43.27-1.08.51-2.17.72-3.27.85-.9,1.38-2.01,1.02-3.33Zm-2.52,2.27c-.49.52-1.16.95-1.8,1.31-1.35.76-3.08,1.42-4.65,1.18-.26-.04-.53-.12-.72-.23-.31-.17-.5-.39-.62-.73-.26-.75-.04-1.56.33-2.24.44-.8,1.08-1.55,1.81-2.1.57-.43,1.37-.87,2.06-.78-.05.19-.03.4.07.57.26.43.8.58,1.26.45.53-.15,1.27-.28,1.78-.25.17,0,.33.03.49.06.2.04.08.02.04,0,.07.02.15.05.22.08-.03,0,.31.19.17.09.13.1.13.1.2.25.03.06.05.12.07.18-.09.52-.18,1.04-.28,1.56-.13.21-.27.41-.43.57Z"/><path class="cls-7" d="m48.12,6.16c.11,2.74-1.43,6.03-4.05,7.16-.53.23-1.07.41-1.61.18-.74-.31-.71-1.22-.59-1.88.16-.86.39-1.72.63-2.56.18-.63.36-1.25.6-1.86.08-.21.17-.42.27-.62.17-.06.33-.15.44-.28.48-.56-.32-.93-.8-.93-.43,0-.84.15-1.13.47-.36.41-.56.99-.74,1.49-.45,1.24-.78,2.54-1.06,3.83-.16.75-.31,1.58.06,2.3.52,1.02,1.83,1.31,2.87,1.27,1.98-.06,3.84-1.32,5.02-2.85,1.28-1.65,2.05-3.78,1.96-5.88-.03-.77-1.92-.63-1.88.15Zm-4.61.19s.01-.02.01-.02c.01-.02.05-.04.05-.06,0,.03-.03.06-.06.08Z"/><path class="cls-7" d="m57.55,12.45s0,0,0-.01c0,0,0,0,0,.01,0,0,0,0,0,0Z"/><path class="cls-7" d="m83.72,8.48c-.67-.87-1.62-1.25-2.67-1.49-1.23-.29-2.51-.36-3.77-.4-5.78-.18-11.58.65-17.08,2.41-.33.11.37,1.85.83,1.7,4.44-1.42,9.07-2.25,13.73-2.4,2.26-.07,4.65-.13,6.87.37.49.11,1.01.24,1.46.47.16.08.33.19.47.31.04.03.06.05.09.07-.04.27-.22.87-.24.9-.25.48-.63.85-1.06,1.17-1.52,1.1-3.51,1.72-5.3,2.2-1.92.52-3.89.82-5.88.95-2.02.13-4.05.08-6.07-.12-1.87-.19-3.8-.47-5.6-1.04-.43-.14-.86-.31-1.25-.55-.17-.1-.33-.22-.48-.34-.02-.02-.15-.16-.22-.25.02.07.01.15,0,0-.03-.04-.06-.06-.06-.06.03,0,.04.02.06.05,0-.03,0-.06,0-.1-.02-.26.04-.52.11-.76.14-.46.39-.89.67-1.27,1.18-1.63,3.12-2.78,4.97-3.48.35-.13-.4-1.86-.83-1.7-1.17.44-2.33,1.06-3.34,1.85-.29-.26-.7-.43-1.08-.48-1.13-.14-2.26-.3-3.41-.26-.86.03-1.84.2-2.55.73,0-.08,0-.15-.01-.23-.02-.52-1.75-1.15-1.72-.63.08,1.73.15,3.46.23,5.19.02.42,1.58,1.18,1.71.73.2-.71.27-1.44.4-2.16.11-.64.29-1.32.77-1.79.63-.61,1.58-.76,2.41-.8.88-.04,1.77.08,2.65.19-.35.32-.68.67-.98,1.04-.59.74-1.03,1.64-.98,2.6.05,1.04.58,2.09,1.3,2.83,1.36,1.41,3.53,1.71,5.37,2.03,2.15.37,4.34.56,6.52.55,2.23-.01,4.47-.22,6.65-.68,2.11-.44,4.26-1.1,6.15-2.16.89-.5,1.77-1.22,2.01-2.26.24-1.02-.21-2.14-.84-2.94Zm-.09.91s.02.02.02.07c-.02-.04-.04-.07-.02-.07Z"/><path class="cls-1" d="m30.11,17.81c0,.38-.25.66-.68.66h-.45v.68h-.36v-1.99h.82c.42,0,.67.26.67.65Zm-.38,0c0-.17-.11-.33-.36-.33h-.39v.67h.38c.26,0,.37-.16.37-.35Z"/><path class="cls-10" d="m32.91,19.19c-.6,0-1.05-.42-1.05-1.03s.44-1.04,1.05-1.04,1.05.42,1.05,1.03-.45,1.04-1.05,1.04Zm0-1.73c-.39,0-.67.28-.67.7s.29.7.67.7.66-.28.66-.7-.28-.7-.66-.7Z"/><path class="cls-2" d="m35.86,17.15h.79c.49,0,.74.23.74.62,0,.28-.13.48-.37.57l.38.81h-.41l-.34-.74h-.44v.74h-.36v-1.99Zm.79.93c.25,0,.36-.13.36-.31s-.11-.3-.36-.3h-.43v.61h.43Z"/><path class="cls-6" d="m40.7,17.48h-.6v1.66h-.36v-1.66h-.61v-.33h1.58v.33Z"/><path class="cls-9" d="m42.89,17.49v.53h.76v.32h-.76v.81h-.36v-1.99h1.27v.33h-.91Z"/><path class="cls-3" d="m46.59,19.19c-.6,0-1.05-.42-1.05-1.03s.44-1.04,1.05-1.04,1.05.42,1.05,1.03-.45,1.04-1.05,1.04Zm0-1.73c-.39,0-.67.28-.67.7s.29.7.67.7.66-.28.66-.7-.28-.7-.66-.7Z"/><path class="cls-5" d="m50.73,18.82v.33h-1.19v-1.99h.37v1.66h.82Z"/><path class="cls-4" d="m52.58,19.15v-1.99h.36v1.99h-.36Z"/><path class="cls-8" d="m55.87,19.19c-.6,0-1.05-.42-1.05-1.03s.44-1.04,1.05-1.04,1.05.42,1.05,1.03-.45,1.04-1.05,1.04Zm0-1.73c-.39,0-.67.28-.67.7s.29.7.67.7.66-.28.66-.7-.28-.7-.66-.7Z"/></g></svg>