<?xml version="1.0" encoding="UTF-8"?><svg id="Capa_2" xmlns="http://www.w3.org/2000/svg" viewBox="0 0 236.6 59.86"><defs><style>.cls-1{fill:#fff;stroke-width:0px;}</style></defs><g id="Capa_1-2"><path class="cls-1" d="m138.52,21.98c0,6.44-.02,12.87.02,19.31,0,.98-.18,1.4-1.26,1.31-1.18-.1-2.38-.11-3.56,0-1.11.1-1.24-.35-1.24-1.31.03-9.27.02-18.54.02-27.81,0-4.06.04-8.13-.03-12.19-.02-1.06.31-1.33,1.31-1.26,1.23.09,2.47.1,3.7,0,1.06-.09,1.5.38,1.92,1.27,2.96,6.21,5.98,12.39,8.99,18.58.12.24.25.47.48.9,1.45-3.95,2.84-7.73,4.23-11.51,1-2.74,2.03-5.47,2.97-8.22.27-.79.67-1.02,1.47-1.01,2.38.05,4.76.08,7.13,0,1.08-.04,1.36.27,1.35,1.35-.04,11.74-.03,23.48-.03,35.21,0,1.64-.04,3.29.02,4.93.03.81-.15,1.11-1.04,1.09-2.65-.06-5.3-.07-7.95,0-1.04.03-1.15-.38-1.15-1.27.04-6.8.02-13.6.02-20.39-.22.11-.21.54-.33.86-2.38,6.55-4.75,13.1-7.14,19.65-.19.51-.2,1.14-1.08,1.15-.87,0-.91-.59-1.1-1.11-2.28-6.2-4.56-12.4-6.84-18.6-.12-.33-.25-.65-.38-.97l-.51.06Z"/><path class="cls-1" d="m236.6,22.7c-.21,5.86-2.3,12-7.8,16.49-6.92,5.65-15.88,4.8-21.55-2.11-6.13-7.47-6.95-15.94-3.81-24.86,1.72-4.88,4.88-8.65,9.72-10.76,6.57-2.87,14.03-.68,18.65,5.37,3.35,4.38,4.74,9.38,4.79,15.87Zm-11.69-1.66c-.14-1.81-.24-4.23-.53-6.63-.37-2.94-.99-5.84-2.38-8.51-.62-1.18-1.31-2.45-2.83-2.48-1.59-.02-2.32,1.28-2.97,2.5-.77,1.46-1.29,3.01-1.64,4.62-1.52,6.91-1.47,13.85-.22,20.79.42,2.33,1.04,4.64,2.45,6.61,1.33,1.85,3.16,1.85,4.52.05.55-.73.93-1.56,1.28-2.41,1.8-4.48,2.17-9.2,2.33-14.55Z"/><path class="cls-1" d="m169.56,21.31c0-6.66.02-13.33-.02-19.99,0-1,.21-1.31,1.26-1.3,5.16.06,10.33.03,15.49.03,5.82,0,9.22,2.34,11.39,7.78,3.04,7.6-.04,14.17-4.39,17.51-1.68,1.29-3.53,1.99-5.71,1.91-2.33-.09-4.66.03-6.99-.04-.95-.03-1.23.22-1.22,1.2.06,4.29-.02,8.58.05,12.87.02,1.12-.34,1.36-1.38,1.33-2.42-.07-4.85-.09-7.26,0-1.08.04-1.25-.33-1.25-1.3.04-6.66.02-13.33.02-19.99Zm9.84-7.81c0,2.1.03,4.2-.02,6.29-.02.81.18,1.14,1.06,1.1,1.64-.07,3.29-.04,4.93-.01,1.25.02,2.23-.5,2.94-1.46,1.63-2.21,2.43-4.69,2.08-7.44-.48-3.72-3.01-5.9-6.72-5.9-1.1,0-2.19.05-3.29-.02-.79-.05-1.01.24-.99,1.01.05,2.14.02,4.29.02,6.43Z"/><path class="cls-1" d="m.03,21.16c0-6.62.03-13.24-.03-19.86C0,.26.28.01,1.3.02c6.81.05,13.62.04,20.43,0,.97,0,1.29.28,1.21,1.23-.12,1.36.54,3.1-.25,3.98-.81.89-2.58.26-3.93.28-2.79.05-5.58.05-8.36,0-.92-.02-1.16.28-1.13,1.16.06,1.64.06,3.29,0,4.93-.03.85.25,1.09,1.09,1.07,2.56-.05,5.12.01,7.68-.04.83-.02,1.15.22,1.09,1.07-.07,1-.05,2.01,0,3.01.04.73-.23.94-.94.93-2.56-.04-5.12.03-7.68-.03-.92-.02-1.25.17-1.24,1.17.05,5.8.05,11.6,0,17.4,0,.96.25,1.22,1.21,1.21,3.66-.06,7.31,0,10.97-.05.95-.01,1.32.23,1.21,1.21-.13,1.21.51,2.84-.27,3.54-.67.6-2.26.2-3.44.2-5.85,0-11.7-.03-17.55.03-1.18.01-1.4-.35-1.39-1.45.05-6.57.03-13.15.03-19.73Z"/><path class="cls-1" d="m104.91,21.2c0-6.62.02-13.24-.02-19.86,0-.97.18-1.34,1.26-1.33,6.85.05,13.71.05,20.56,0,1,0,1.24.31,1.18,1.24-.09,1.36.45,3.18-.24,3.97-.79.91-2.66.27-4.06.29-2.83.05-5.67.04-8.5,0-.86-.01-1.22.17-1.18,1.12.07,1.78.07,3.56,0,5.34-.04.94.22,1.27,1.21,1.25,2.69-.07,5.39,0,8.09-.04.79-.01,1.1.13,1.11,1.03.03,3.42.07,3.42-3.35,3.42-2.01,0-4.02.03-6.03-.02-.76-.02-1.03.19-1.02.99.03,5.93.03,11.87,0,17.8,0,.82.29.98,1.03.97,3.93-.03,7.86,0,11.79-.03.87,0,1.22.18,1.15,1.11-.1,1.31.42,3.03-.24,3.84-.69.85-2.48.24-3.78.23-5.89-.04-11.78-.18-17.68-.19-1.17,0-1.31-.42-1.31-1.42.04-6.57.02-13.15.02-19.72Z"/><path class="cls-1" d="m70.04,23.96c0-5.71-.03-11.42.03-17.12.01-1.12-.34-1.37-1.38-1.33-2.28.07-4.57,0-6.86.04-.78.01-1.05-.23-1.02-1.01.05-1.14.08-2.29,0-3.42-.08-.99.4-1.09,1.2-1.08,3.29.03,6.58.01,9.87.01,5.21,0,10.42.04,15.63-.03,1.18-.02,1.49.34,1.4,1.45-.1,1.22-.06,2.47,0,3.7.03.71-.2.95-.93.93-2.19-.04-4.39.05-6.58-.04-1.06-.04-1.27.3-1.27,1.3.04,11.14,0,22.28.05,33.43,0,1.26-.32,1.6-1.56,1.55-2.46-.1-4.94-.08-7.4,0-.99.03-1.2-.31-1.2-1.24.04-5.71.02-11.42.02-17.12Z"/><path class="cls-1" d="m26.71,21.14c0-6.58.02-13.16-.02-19.73,0-1.03.2-1.44,1.34-1.4,2.33.09,4.67.09,6.99,0,1.07-.04,1.26.32,1.26,1.31-.03,11.51,0,23.02-.06,34.54,0,1.31.39,1.56,1.59,1.53,3.38-.08,6.77,0,10.15-.05.86-.01,1.23.17,1.16,1.11-.1,1.22.38,2.82-.23,3.57-.65.8-2.31.25-3.52.25-5.76.03-11.52-.02-17.28.04-1.17.01-1.41-.34-1.4-1.45.05-6.58.03-13.16.03-19.73Z"/><path class="cls-1" d="m92.17,21.09c0-6.62.02-13.24-.02-19.86,0-.95.22-1.26,1.2-1.22,2.24.07,4.48.05,6.72,0,.79-.02,1.13.15,1.13,1.05-.03,13.42-.02,26.85,0,40.27,0,.79-.25,1.01-1.02.99-2.28-.04-4.57-.07-6.85,0-1.02.04-1.17-.34-1.17-1.24.04-6.67.02-13.33.02-20Z"/><path class="cls-1" d="m158.36,54.75c1.98-.34,2.7-1.62,1.8-3.02-.41-.65-1.02-.72-1.68-.64-.83.1-.44.78-.45,1.19-.04,2.05-.08,4.1,0,6.15.04,1.02-.36,1.19-1.26,1.17-.82-.02-1.22-.13-1.19-1.1.07-2.5.05-5.01,0-7.52-.01-.75.17-1.07.98-1.02,1.09.06,2.19,0,3.28.03,1.64.05,2.9.81,3.26,2.03.43,1.44-.21,2.48-1.42,3.21-.46.27-.5.55-.25.99.47.83.89,1.69,1.36,2.52.33.58.35.84-.47.91-1.28.11-2.14-.14-2.55-1.53-.33-1.13-.91-2.18-1.43-3.36Z"/><path class="cls-1" d="m103.3,54.77c0-1.28.04-2.55-.02-3.83-.04-.8.26-1.02,1.02-.98,1.14.07,2.29-.04,3.42.08,2.66.29,4.16,2.37,3.98,5.4-.16,2.62-1.74,4.14-4.42,4.16-1.27.01-2.93.41-3.71-.22-.83-.68-.18-2.4-.26-3.66-.02-.32,0-.64,0-.96Zm2.45-.16c0,.68-.04,1.37.01,2.05.04.51-.31,1.24.29,1.47.74.28,1.52.04,2.15-.52,1.5-1.35,1.45-4.62-.09-5.94-.35-.3-.75-.51-1.21-.58-.72-.11-1.25-.04-1.17.93.07.86.02,1.73.02,2.59Z"/><path class="cls-1" d="m140.43,54.23c.02-.15.04-.66.18-1.13.65-2.26,2.58-3.67,4.52-3.34,2.16.37,3.8,2.62,3.72,5.07-.09,2.69-1.78,4.83-3.95,5.01-2.49.21-4.52-2.19-4.47-5.62Zm5.45.43c-.18-1.05-.11-2.21-.59-3.27-.15-.33-.34-.71-.75-.72-.4-.01-.61.35-.75.69-.97,2.35-.91,4.69.04,7.02.12.29.28.62.64.64.44.03.59-.35.75-.68.56-1.14.45-2.4.65-3.67Z"/><path class="cls-1" d="m75.74,59.45c-.5.28-.97.1-1.41.18-1.04.19-1.43-.32-1.66-1.26-.33-1.37-1.91-2.06-3.21-1.52-.44.19-.34.61-.47.92-.19.46-.28.96-.43,1.44-.18.54-.65.43-1.04.38-.54-.08-.28-.47-.2-.73.85-2.74,1.73-5.47,2.54-8.23.2-.68.61-.74,1.12-.64.59.12,1.41-.46,1.74.56.99,2.98,2.02,5.94,3.02,8.9Zm-4.1-4.07c-.32-.95-.62-1.88-.95-2.85-.41.46-.4.98-.52,1.47q-.39,1.61,1.46,1.39Z"/><path class="cls-1" d="m48.48,59.59c-1.17.35-1.55-.37-1.69-1.32-.17-1.14-.74-1.51-1.92-1.47-1.1.03-1.83.2-1.95,1.43-.03.31-.18.61-.27.92-.18.63-.69.54-1.11.45-.66-.15-.17-.61-.1-.86.79-2.66,1.68-5.29,2.43-7.95.25-.9.82-.82,1.45-.8.64.02,1.31-.21,1.61.78.77,2.52,1.62,5.02,2.54,7.49.42,1.12.35,1.64-1,1.34Zm-3.92-7.03c-.3.96-.6,1.88-.9,2.82,2.16.32,2.2.29,1.54-1.58-.14-.41-.13-.91-.65-1.23Z"/><path class="cls-1" d="m185.43,59.62c-.91.24-1.32-.3-1.63-1.2-.57-1.64-1.09-1.87-2.82-1.59-.45.07-.61.29-.74.66-.2.56-.46,1.09-.66,1.65-.18.51-.59.59-.99.44-.47-.18-.13-.54-.05-.8.83-2.65,1.73-5.28,2.47-7.95.27-.98.88-.83,1.55-.86.72-.03,1.26,0,1.53.89.76,2.48,1.64,4.92,2.47,7.38.46,1.38.45,1.38-1.13,1.38Zm-4.65-4.26c2.2.32,2.21.31,1.52-1.67-.14-.39-.13-.87-.59-1.16-.31.95-.62,1.88-.93,2.82Z"/><path class="cls-1" d="m58.13,59.85c-.69,0-1.58-.3-2.23-1.1-.23-.29-.87-.64-.16-1.08.44-.27.92-.66,1.37.08.32.54.79.9,1.49.61.4-.17.69-.43.72-.91.05-.74-.49-1.05-1.02-1.31-1.67-.8-3.02-1.77-2.61-3.94.24-1.3.94-2.19,2.24-2.46,1.3-.26,2.44.08,3.27,1.2.28.38.39.69-.07,1.03-.41.31-.7.34-.97-.15-.18-.33-.48-.56-.84-.67-.51-.17-1.03-.15-1.35.35-.33.52-.29,1.09.24,1.46.63.44,1.35.76,1.99,1.19,1.24.82,1.63,2,1.2,3.47-.39,1.32-1.56,2.2-3.28,2.22Z"/><path class="cls-1" d="m26.81,54.63c0-3.22,2.3-5.37,5.3-4.93.91.13,1.59.58,2.12,1.34.39.56.39.91-.19,1.35-.65.49-.77-.09-.99-.41-.47-.66-.99-1.25-1.88-1.12-.99.15-1.43.92-1.68,1.78-.4,1.39-.39,2.79.06,4.17.27.83.73,1.5,1.66,1.61.89.1,1.57-.31,2.1-1.03.29-.39.46-1.11,1.2-.55.75.58.01,1-.23,1.35-1.51,2.15-4.73,2.13-6.33,0-.8-1.06-1.15-2.26-1.14-3.57Z"/><path class="cls-1" d="m192.96,54.77c0-1.32.05-2.64-.02-3.96-.05-1.11.7-.83,1.28-.83.58,0,1.3-.26,1.27.84-.06,2.09.03,4.19-.04,6.28-.03.93.3,1.2,1.16,1.11.5-.05,1,0,1.5-.01.52-.02.59.28.58.69,0,.38,0,.74-.54.73-1.55-.01-3.1,0-4.64,0-.63,0-.54-.48-.55-.88,0-1.32,0-2.64,0-3.96Z"/><path class="cls-1" d="m91.32,54.81c0-1.14.1-2.29-.03-3.41-.15-1.29.38-1.56,1.52-1.44.9.09,1.82.03,2.73.01.5-.01.74.14.74.69,0,.55-.23.72-.74.69-.5-.02-1,.02-1.5-.01-.57-.04-.82.13-.81.75.01.58.29.69.77.66.27-.02.55,0,.82,0,.6-.02.62.37.62.81,0,.57-.4.59-.75.48-1.47-.46-1.58.37-1.45,1.47.02.13,0,.27,0,.41.01.77-.24,1.72.11,2.28.41.64,1.43.17,2.17.26.37.04.73,0,.74.55,0,.51-.27.61-.68.61-1.19,0-2.37-.03-3.56,0-.66.02-.73-.34-.72-.85.02-1.32,0-2.64,0-3.96Z"/><path class="cls-1" d="m129.78,55.43c0-.96-.06-1.92.02-2.88.08-.93-.17-1.35-1.18-1.23-.35.04-.99.32-1.03-.47-.05-.9.64-.59,1.05-.6,1.69-.03,3.38-.02,5.08,0,.4,0,.99-.21.96.58-.02.68-.55.56-.89.5-1.38-.24-1.68.36-1.6,1.64.11,1.91-.02,3.84.05,5.75.04,1.07-.63.89-1.25.89-.62,0-1.3.17-1.22-.9.09-1.09.02-2.19.02-3.29Z"/><path class="cls-1" d="m121.04,54.8c0,1.32-.05,2.64.02,3.95.06,1.1-.69.83-1.26.83-.59,0-1.29.25-1.26-.85.06-2.63.06-5.27,0-7.91-.02-1.09.69-.84,1.27-.84.6,0,1.31-.23,1.25.86-.07,1.31-.02,2.63-.02,3.95Z"/><path class="cls-1" d="m169.56,54.73c0-1.28.07-2.56-.02-3.83-.08-1.07.57-.94,1.2-.9.56.03,1.31-.32,1.29.82-.06,2.65-.06,5.3,0,7.94.02,1.11-.7.82-1.28.84-.62.02-1.29.18-1.22-.89.09-1.32.02-2.65.02-3.97Z"/></g></svg>