<?xml version="1.0" encoding="UTF-8"?><svg id="Capa_2" xmlns="http://www.w3.org/2000/svg" viewBox="0 0 243 70.96"><defs><style>.cls-1{fill:#fff;stroke-width:0px;}</style></defs><g id="Capa_1-2"><path class="cls-1" d="m67.55,19.26v-8.79h2.21v8.79c0,2.5,1.37,3.48,3.05,3.48s3.05-.96,3.05-3.65v-8.61h1.39v8.79c0,3.44-2.21,4.86-4.85,4.86s-4.85-1.52-4.85-4.86Z"/><path class="cls-1" d="m85.5,23.93v-5.92c0-1.46-.32-2.54-1.78-2.54-1.22,0-2.34.88-2.38,2.23v6.23h-2.02v-9.63h2.02v.79c.62-.54,1.55-.96,2.9-.96,2.55,0,3.28,1.5,3.28,3.88v5.92h-2.02Z"/><path class="cls-1" d="m89.59,13.28v-1.65h2.02v1.65h-2.02Zm0,10.65v-9.61h2.02v9.61h-2.02Z"/><path class="cls-1" d="m98.96,23.93h-2.02c-.6-1.61-2.94-8-3.54-9.61h2.14l2.75,7.48,2.75-7.48h1.44c-.6,1.65-2.92,7.96-3.52,9.61Z"/><path class="cls-1" d="m105.53,20.36c0,1.52.79,2.38,2.38,2.38,1.22,0,2.06-.33,3.02-1.19l.75,1.1c-.94,1.02-2.4,1.48-3.92,1.48-2.6,0-4.25-1.02-4.25-3.63v-2.98c0-2.52,2.1-3.38,4.42-3.38s3.86.83,3.86,3.15c0,2.52-1.99,3.08-4.01,3.08h-2.25Zm0-2.96v1.58h2.12c1.27,0,2.1-.48,2.1-1.61,0-1.19-.58-1.88-1.91-1.88s-2.3.54-2.3,1.92Z"/><path class="cls-1" d="m119.12,16.07c-.3-.42-.73-.6-1.24-.6-1.22,0-2.34.88-2.38,2.23v6.23h-2.02v-9.63h2.02v.79c.62-.54,1.54-.96,2.88-.96.67,0,1.22.12,1.87.38-.26.35-.96,1.33-1.14,1.56Z"/><path class="cls-1" d="m121.39,22.62l.77-1.02c.69.83,1.63,1.17,2.62,1.17,1.16,0,1.95-.5,1.95-1.25,0-1.9-5.06-1.96-5.06-4.88,0-1.52,1.42-2.52,3.56-2.52,1.4,0,2.6.44,3.47,1.29l-.75,1.04c-.71-.69-1.61-1-2.49-1-1.09,0-1.87.44-1.87,1.02,0,1.56,5.23,1.54,5.23,4.81,0,1.71-1.52,2.85-3.78,2.85-1.52,0-2.79-.52-3.63-1.5Z"/><path class="cls-1" d="m130.59,13.28v-1.65h2.02v1.65h-2.02Zm0,10.65v-9.61h2.02v9.61h-2.02Z"/><path class="cls-1" d="m141.3,23.93v-.58c-.53.37-1.29.77-2.68.77-2.94,0-4.14-2.61-4.14-5.06,0-2.79,1.2-4.94,4.01-4.94,1.42,0,2.21.42,2.83.92l-.02-4.58h2.02v13.46h-2.02Zm0-6.36c-.02-1.56-1.18-2.15-2.25-2.15-1.97,0-2.4,2.02-2.4,3.63s.62,3.69,2.53,3.69c1.24,0,2.12-.44,2.12-1.85v-3.33Z"/><path class="cls-1" d="m151.38,17.89c0-1.73-.82-2.42-2.75-2.42-.9,0-1.89.4-2.64,1.23l-.75-1.1c.94-1.02,2.4-1.48,3.9-1.48,2.6,0,4.27,1.02,4.27,3.61v6.19h-2.02v-.6c-.6.48-1.46.79-2.51.79-2.21,0-3.86-.83-3.86-3.15,0-2.44,1.85-3.08,3.86-3.08h2.51Zm.02,1.37h-2.25c-1.31,0-2.12.48-2.12,1.63,0,1.44.92,1.86,2.34,1.86,1.18,0,2-.6,2-1.83l.02-1.67Z"/><path class="cls-1" d="m161.91,23.93v-.58c-.53.37-1.29.77-2.68.77-2.94,0-4.14-2.61-4.14-5.06,0-2.79,1.2-4.94,4.01-4.94,1.42,0,2.21.42,2.83.92l-.02-4.58h2.02v13.46h-2.02Zm0-6.36c-.02-1.56-1.18-2.15-2.25-2.15-1.97,0-2.4,2.02-2.4,3.63s.62,3.69,2.53,3.69c1.24,0,2.12-.44,2.12-1.85v-3.33Z"/><path class="cls-1" d="m176.94,23.93v-.58c-.53.37-1.29.77-2.68.77-2.94,0-4.14-2.61-4.14-5.06,0-2.79,1.2-4.94,4.01-4.94,1.42,0,2.21.42,2.83.92l-.02-4.58h2.02v13.46h-2.02Zm0-6.36c-.02-1.56-1.18-2.15-2.25-2.15-1.97,0-2.4,2.02-2.4,3.63s.62,3.69,2.53,3.69c1.24,0,2.12-.44,2.12-1.85v-3.33Z"/><path class="cls-1" d="m182.86,20.36c0,1.52.79,2.38,2.38,2.38,1.22,0,2.06-.33,3.02-1.19l.75,1.1c-.94,1.02-2.4,1.48-3.92,1.48-2.6,0-4.25-1.02-4.25-3.63v-2.98c0-2.52,2.1-3.38,4.42-3.38s3.86.83,3.86,3.15c0,2.52-1.99,3.08-4.01,3.08h-2.25Zm0-2.96v1.58h2.12c1.27,0,2.1-.48,2.1-1.61,0-1.19-.58-1.88-1.91-1.88s-2.3.54-2.3,1.92Z"/><path class="cls-1" d="m67.64,57.7v-27.03h4.66v24.25h12.76v2.78h-17.42Z"/><path class="cls-1" d="m101.45,45.58c0-3.48-1.74-4.87-5.81-4.87-1.9,0-3.99.81-5.57,2.47l-1.58-2.2c1.98-2.05,5.06-2.97,8.22-2.97,5.49,0,9.01,2.05,9.01,7.26v12.44h-4.27v-1.2c-1.26.97-3.08,1.58-5.29,1.58-4.66,0-8.14-1.66-8.14-6.33,0-4.9,3.91-6.18,8.14-6.18h5.29Zm.04,2.74h-4.74c-2.77,0-4.46.97-4.46,3.28,0,2.9,1.94,3.75,4.94,3.75,2.49,0,4.23-1.2,4.23-3.67l.04-3.36Z"/><path class="cls-1" d="m115.2,54.03l2.01-2.12c2.41,2.43,4.86,3.36,7.9,3.36,3.52,0,5.65-1.54,5.65-3.98,0-6.64-14.77-6.1-14.77-14.37,0-4.06,3.79-6.64,9.72-6.64,3.99,0,7.39,1.24,9.76,3.51l-1.94,2.16c-2.57-2.12-4.82-2.94-7.7-2.94-3.04,0-4.66,1.16-4.66,3.01,0,5.72,14.62,5.64,14.62,14.44,0,4.56-4.23,7.61-10.47,7.61-4.46,0-8.02-1.62-10.11-4.06Z"/><path class="cls-1" d="m152.77,45.58c0-3.48-1.74-4.87-5.81-4.87-1.9,0-3.99.81-5.57,2.47l-1.58-2.2c1.98-2.05,5.06-2.97,8.22-2.97,5.49,0,9.01,2.05,9.01,7.26v12.44h-4.27v-1.2c-1.26.97-3.08,1.58-5.29,1.58-4.66,0-8.14-1.66-8.14-6.33,0-4.9,3.91-6.18,8.14-6.18h5.29Zm.04,2.74h-4.74c-2.77,0-4.46.97-4.46,3.28,0,2.9,1.94,3.75,4.94,3.75,2.49,0,4.23-1.2,4.23-3.67l.04-3.36Z"/><path class="cls-1" d="m165.25,57.7h-4.27v-27.03h4.27v9.23c1.3-1.04,2.96-1.89,5.93-1.89,5.96,0,8.45,4.33,8.45,9.93,0,4.91-2.49,10.16-8.73,10.16-2.88,0-4.54-.73-5.65-1.55v1.16Zm0-12.9v6.8c0,2.82,1.9,3.71,4.46,3.71,4.03,0,5.37-4.25,5.37-7.42s-.95-7.3-5.1-7.3c-2.21,0-4.66,1.16-4.74,4.21Z"/><path class="cls-1" d="m196.22,45.58c0-3.48-1.74-4.87-5.81-4.87-1.9,0-3.99.81-5.57,2.47l-1.58-2.2c1.98-2.05,5.06-2.97,8.22-2.97,5.49,0,9.01,2.05,9.01,7.26v12.44h-4.27v-1.2c-1.26.97-3.08,1.58-5.29,1.58-4.66,0-8.14-1.66-8.14-6.33,0-4.9,3.91-6.18,8.14-6.18h5.29Zm.04,2.74h-4.74c-2.77,0-4.46.97-4.46,3.28,0,2.9,1.94,3.75,4.94,3.75,2.49,0,4.23-1.2,4.23-3.67l.04-3.36Z"/><path class="cls-1" d="m217.48,57.7v-11.9c0-2.94-.67-5.1-3.75-5.1-2.57,0-4.94,1.78-5.02,4.48v12.51h-4.27v-19.35h4.27v1.58c1.3-1.08,3.28-1.93,6.12-1.93,5.37,0,6.91,3.01,6.91,7.8v11.9h-4.27Z"/><path class="cls-1" d="m238.73,45.58c0-3.48-1.74-4.87-5.81-4.87-1.9,0-3.99.81-5.57,2.47l-1.58-2.2c1.98-2.05,5.06-2.97,8.22-2.97,5.49,0,9.01,2.05,9.01,7.26v12.44h-4.27v-1.2c-1.26.97-3.08,1.58-5.29,1.58-4.66,0-8.14-1.66-8.14-6.33,0-4.9,3.91-6.18,8.14-6.18h5.29Zm.04,2.74h-4.74c-2.77,0-4.46.97-4.46,3.28,0,2.9,1.94,3.75,4.94,3.75,2.49,0,4.23-1.2,4.23-3.67l.04-3.36Z"/><path class="cls-1" d="m0,0v53.63c.41,8.09,9.9,12.51,18.18,13.08,2.76.19,5.85.3,6.9.82,1.59.79,1.93,3.42,1.93,3.42,0,0,.36-2.63,1.95-3.42,1.05-.52,4.14-.64,6.9-.82,8.45-.58,18.13-5.17,18.16-13.59V0H0Zm35.18,44.95c-3.02,3.6-5.96,4.52-6.83,5.03v11.18l-2.91-4.19v-7c-.88-.5-3.9-1.28-6.81-5.03-5.58-6.16-9.2-6.36-9.2-6.36,7.02-1.02,12.39,4.32,16,9.16l.03-2.78v-2.81s-.78,0-.78,0l-.53-1.71h1.32v-2.63c1.67-.44,10.12-2.76,10.18-12.51,0-2.62-1.47-10.44-8.65-10.39-4.22.03-8.71,2.73-8.73,10.39-.05,5.32,3,10.03,8.73,11.1-3.65,1.19-5.8.32-6.96-.26-1.81-.92-3.24-2.28-4.28-4.08-1.04-1.79-1.64-3.85-1.64-6.52,0-2.06.3-3.86.93-5.39.63-1.53,1.52-2.83,2.68-3.91,1.16-1.07,2.42-1.84,3.79-2.31.86-.29,1.81-.6,2.75-.75-.67-1.48-3.12-3.04-4.5-3.97,3.96-.4,5.54,1.37,5.54,1.37.11-2.04,1.58-5.56,1.69-5.83v-.02s.02.03.02.03c.11.27,1.47,3.79,1.59,5.82,0,0,1.57-1.77,5.53-1.37-1.36.91-3.69,2.52-4.41,3.97,1.1.14,1.85.43,2.78.82,1.21.51,2.32,1.1,3.26,1.93.96.82,1.69,1.67,2.18,2.54.5.87.87,1.83,1.12,2.86.25,1.04.53,2.93.53,3.95,0,2.12-.18,3.43-.91,5.25-.54,1.36-1.34,2.56-2.39,3.61-1.04,1.04-2.24,1.82-3.55,2.41-1.8.81-2.12.92-4.41,1.27v2.63h.78l.54,1.71h-1.32v2.88s0,0,0,0v2.71c3.62-4.85,8.99-10.18,16.02-9.16,0,0-3.61.2-9.19,6.36Zm-8.17-23.3c.87,0,1.58.72,1.58,1.61s-.71,1.61-1.58,1.61-1.56-.72-1.56-1.61.7-1.61,1.56-1.61Zm-1.56-3.03c0-.89.7-1.61,1.56-1.61s1.58.72,1.58,1.61-.71,1.61-1.58,1.61-1.56-.72-1.56-1.61Zm1.56,7.8c.87,0,1.57.72,1.57,1.61s-.7,1.61-1.57,1.61-1.56-.72-1.56-1.61.7-1.61,1.56-1.61Zm0,4.65c.87,0,1.58.72,1.58,1.62s-.71,1.61-1.58,1.61-1.56-.72-1.56-1.61.7-1.62,1.56-1.62Zm4.38-8.39c-.86,0-1.56-.72-1.56-1.61s.7-1.61,1.56-1.61,1.56.72,1.56,1.61-.7,1.61-1.56,1.61Zm1.57,7.49c0,.89-.7,1.61-1.57,1.61s-1.56-.72-1.56-1.61.7-1.61,1.56-1.61,1.57.72,1.57,1.61Zm-2.33-6.15c.87,0,1.57.72,1.57,1.61s-.7,1.61-1.57,1.61-1.56-.72-1.56-1.61.7-1.61,1.56-1.61Zm-7.97,4.54c.87,0,1.57.72,1.57,1.61s-.7,1.61-1.57,1.61-1.57-.72-1.57-1.61.7-1.61,1.57-1.61Zm-1.56-7.49c0-.89.69-1.61,1.56-1.61s1.56.72,1.56,1.61-.7,1.61-1.56,1.61-1.56-.72-1.56-1.61Zm2.3,6.17c-.87,0-1.57-.72-1.57-1.61s.7-1.61,1.57-1.61,1.56.72,1.56,1.61-.7,1.61-1.56,1.61Z"/></g></svg>