<?xml version="1.0" encoding="UTF-8"?><svg id="Capa_2" xmlns="http://www.w3.org/2000/svg" viewBox="0 0 283.5 43.36"><defs><style>.cls-1,.cls-2{fill:#fff;stroke-width:0px;}.cls-2{fill-rule:evenodd;}</style></defs><g id="Capa_1-2"><path class="cls-2" d="m22.27,4.39h-8.27c-1.29.98-2.47,2.1-3.51,3.34h8.6c.94-1.22,2.01-2.33,3.18-3.34Zm-6.41,25.57c-.34-.87-.63-1.77-.86-2.69l-3.75,2.69h4.61Zm.05-16.68H7.07c-.45,1.07-.81,2.19-1.09,3.33h8.88c.26-1.15.61-2.26,1.04-3.33ZM29.62.15c-.84-.1-1.69-.15-2.55-.15-4.21,0-8.13,1.2-11.45,3.27h8.05c1.8-1.32,3.8-2.38,5.95-3.12Zm-11.34,8.68h-8.67c-.77,1.05-1.45,2.16-2.02,3.34h8.8c.54-1.17,1.17-2.28,1.89-3.34Zm.72,26.69h-8.61c1.03,1.24,2.19,2.35,3.46,3.33h8.28c-1.15-1-2.2-2.12-3.13-3.33Zm-4.55-16.33c.05-.49.12-.98.21-1.46H5.75c-.2,1.09-.32,2.2-.35,3.34h6.46l2.57-1.88Zm.98,20.78c3.36,2.15,7.36,3.4,11.64,3.4.86,0,1.71-.05,2.55-.15-2.21-.77-4.28-1.87-6.12-3.25h-8.07Zm.91-8.88h-.45v-.02s-6.18,0-6.18,0l-1.58,1.14h0c.42.76.89,1.49,1.41,2.2h8.67c-.71-1.05-1.32-2.16-1.85-3.32Zm-10.94-8.91c.03,1.14.14,2.25.33,3.34h.04l4.57-3.34h-4.94Z"/><path class="cls-2" d="m23.84,38.85h26.46c1.27-.98,2.43-2.1,3.46-3.33H20.38c1.02,1.24,2.19,2.35,3.46,3.33Zm13.23,4.51c4.29,0,8.28-1.25,11.65-3.4h-23.29c3.36,2.15,7.36,3.4,11.65,3.4Zm14.2-12.29h-2.64v.02h-8.1v-.02s-4.14,0-4.14,0v.02h-8.1v-.02s-4.22,0-4.22,0v.02h-6.56c.56,1.17,1.23,2.28,1.99,3.32h35.1c.76-1.04,1.43-2.15,1.99-3.32h-5.34v-.02ZM37.07,0c-4.2,0-8.13,1.2-11.45,3.27h22.91c-3.32-2.07-7.25-3.27-11.45-3.27Zm13.07,4.39h-26.14c-1.29.98-2.47,2.1-3.51,3.34h33.17c-1.04-1.24-2.22-2.36-3.51-3.34Zm4.39,4.45H19.61c-.77,1.05-1.45,2.16-2.02,3.34h38.97c-.57-1.17-1.25-2.29-2.02-3.34Z"/><path class="cls-2" d="m63.38,12.23l-4.29,7.45h-5.16l3.64-6.35h-5.53l-5.38,9.35-4.19,7.29h5.52l3.65-6.34h5.16l-3.62,6.34h5.77l10.17-17.75h-5.74Zm-30.36,1.1h-8.67L0,31.09h7.75l15.89-11.41-1.13,1.75-4.45,3.49,2.65-.03-2.91,5.09h5.64l8.14-14.14,1.44-2.51Zm15.33,4.48l2.56-4.48h-16.78l-2.54,4.41-.03.07h5.65l-5.62,9.78-1.36,2.39h5.53l7-12.17h5.59Z"/><polygon class="cls-1" points="106.47 12.23 91.04 12.23 90.28 16.73 95.3 16.73 93.37 29.92 98.98 29.92 100.92 16.73 105.71 16.73 106.47 12.23"/><polygon class="cls-1" points="168.13 18.3 162.91 18.3 163.89 12.23 158.21 12.23 155.58 29.92 161.2 29.92 162.18 23 167.37 23 166.39 29.92 172.07 29.92 174.69 12.23 169.05 12.23 168.13 18.3"/><path class="cls-1" d="m201.91,16.5c-.23-.03-.43-.03-.56-.03-.79,0-1.45.16-2.07.56-.59.36-1.15.95-1.68,1.71l.3-1.87h-4.63l-1.87,13.07h4.99l.72-5.02c.17-1.35.49-2.27.92-2.76.46-.49,1.15-.75,2.07-.75.13,0,.39.03.75.07.17.03.3.03.39.03l.73-4.99h-.07Z"/><path class="cls-1" d="m234.65,15.71c.69,0,1.22.16,1.61.43.36.3.59.75.65,1.35h5.28c-.13-1.81-.85-3.22-2.13-4.24-1.31-.98-3.09-1.48-5.32-1.48s-3.97.46-5.22,1.41c-1.25.95-1.87,2.27-1.87,3.94,0,1.21.36,2.2,1.12,3.02.72.82,2.14,1.71,4.2,2.63.23.06.49.2.85.36,1.48.62,2.2,1.22,2.2,1.77,0,.49-.16.82-.49,1.08-.33.23-.79.36-1.41.36-.85,0-1.51-.16-1.97-.53-.43-.36-.66-.85-.66-1.48v-.07h-5.52c0,1.94.72,3.41,2.1,4.5,1.41,1.08,3.35,1.61,5.88,1.61s4.27-.49,5.61-1.51c1.31-.98,1.97-2.4,1.97-4.17,0-1.15-.33-2.14-.99-2.99-.69-.82-1.74-1.58-3.15-2.2-.43-.16-.98-.39-1.71-.69-1.77-.76-2.66-1.38-2.66-1.9,0-.33.16-.63.46-.86.3-.23.66-.36,1.15-.36Z"/><path class="cls-1" d="m82.47,12.23h-5.65l-8.67,17.7h5.75l.89-2.13h5.62l.29,2.13h5.32l-3.54-17.7Zm-6.31,12.02l1.84-4.43.88-2.13.92,6.57h-3.64Z"/><path class="cls-1" d="m116.58,18.04c-1.25-1.11-2.95-1.68-5.09-1.68h-.43c-2.2.1-3.94.79-5.29,2.1-1.41,1.38-2.13,3.25-2.13,5.58,0,1.94.63,3.48,1.91,4.63,1.25,1.15,2.96,1.71,5.12,1.71h.39c2.23-.07,4-.75,5.32-2.07,1.38-1.35,2.07-3.25,2.07-5.65,0-1.94-.63-3.48-1.87-4.63Zm-3.97,7.58c-.4.66-.92,1.05-1.54,1.12-.1.03-.2.03-.3.03-.66,0-1.15-.23-1.48-.62-.33-.43-.46-1.05-.46-1.9,0-1.38.2-2.46.66-3.22.39-.66.89-1.02,1.58-1.12.1,0,.2-.03.33-.03.62,0,1.12.23,1.41.69.33.43.49,1.12.49,2,0,1.28-.23,2.3-.69,3.05Z"/><path class="cls-1" d="m130.83,12.23l-.89,6.07c-.49-.62-1.05-1.12-1.67-1.41-.36-.2-.72-.3-1.12-.39-.33-.07-.69-.1-1.08-.1-1.74,0-3.22.76-4.4,2.23-1.15,1.48-1.74,3.32-1.74,5.52,0,1.87.46,3.38,1.35,4.5.92,1.12,2.17,1.67,3.71,1.67.79,0,1.51-.16,2.17-.49.03,0,.1-.03.13-.03.69-.36,1.31-.89,1.81-1.58l-.16,1.71h4.44l2.43-17.7h-4.96Zm-2.13,13.3c-.43.59-.92.92-1.54,1.02-.1,0-.23.03-.36.03-.59,0-1.08-.23-1.41-.66-.33-.43-.5-1.02-.5-1.81,0-1.08.26-2,.72-2.69.43-.63.92-.99,1.54-1.05.1-.03.17-.03.26-.03.66,0,1.15.2,1.48.62.36.43.53,1.02.53,1.81,0,1.15-.27,2.07-.72,2.76Z"/><path class="cls-1" d="m149.02,17.45c-1.05-.69-2.6-1.05-4.6-1.05-.46,0-.85.03-1.25.07-1.57.1-2.82.46-3.77,1.02-1.15.75-1.84,1.84-2.04,3.32h4.86c.07-.46.23-.79.53-.99.1-.1.26-.16.42-.23.23-.07.53-.1.85-.1.53,0,.92.1,1.22.3.3.2.42.46.42.82,0,.62-.82,1.05-2.49,1.21-.33,0-.56.03-.72.03-2.37.26-4.04.75-4.99,1.48-.99.75-1.48,1.87-1.48,3.38,0,1.08.39,1.97,1.18,2.63.79.65,1.8,1.02,3.12,1.02.79,0,1.58-.17,2.33-.43.17-.06.36-.16.56-.23.56-.26,1.08-.59,1.64-1.02l.17,1.25h4.99v-.36c-.17-.16-.26-.36-.33-.56-.06-.23-.1-.46-.1-.72,0-.13,0-.26.03-.43,0-.16.03-.39.1-.69l.72-4.73c.06-.36.1-.72.13-1.09.03-.33.06-.62.06-.85,0-1.31-.52-2.33-1.57-3.05Zm-4.63,8.97c-.33.36-.72.62-1.22.75-.23.03-.49.07-.72.07-.43,0-.72-.1-.98-.29-.23-.2-.36-.46-.36-.79,0-.72.69-1.25,2.07-1.54.82-.16,1.51-.36,2.04-.53-.06.99-.33,1.77-.82,2.33Z"/><path class="cls-1" d="m188.36,18.04c-1.25-1.11-2.93-1.68-5.09-1.68h-.43c-2.2.1-3.94.79-5.29,2.1-1.41,1.38-2.13,3.25-2.13,5.58,0,1.94.66,3.48,1.91,4.63,1.25,1.15,2.96,1.71,5.12,1.71h.39c2.23-.07,4.04-.75,5.32-2.07,1.41-1.35,2.11-3.25,2.11-5.65,0-1.94-.63-3.48-1.91-4.63Zm-3.97,7.58c-.39.66-.92,1.05-1.54,1.12-.1.03-.2.03-.3.03-.66,0-1.15-.23-1.48-.62-.3-.43-.46-1.05-.46-1.9,0-1.38.2-2.46.66-3.22.39-.66.91-1.02,1.57-1.12.1,0,.2-.03.33-.03.62,0,1.11.23,1.41.69.33.43.49,1.12.49,2,0,1.28-.23,2.3-.69,3.05Z"/><path class="cls-1" d="m214.65,17.45c-1.05-.69-2.56-1.05-4.6-1.05-.43,0-.85.03-1.25.07-1.58.1-2.82.46-3.74,1.02-1.15.75-1.84,1.84-2.04,3.32h4.86c.03-.46.2-.79.49-.99.13-.1.26-.16.43-.23.26-.07.52-.1.88-.1.49,0,.92.1,1.18.3.29.2.46.46.46.82,0,.62-.85,1.05-2.52,1.21-.3,0-.53.03-.72.03-2.33.26-4,.75-4.96,1.48-.99.75-1.48,1.87-1.48,3.38,0,1.08.39,1.97,1.18,2.63.75.65,1.8,1.02,3.09,1.02.82,0,1.6-.17,2.36-.43.16-.06.36-.16.53-.23.56-.26,1.11-.59,1.64-1.02l.2,1.25h4.99v-.36c-.17-.16-.26-.36-.32-.56-.1-.23-.14-.46-.14-.72,0-.13.03-.26.03-.43.03-.16.06-.39.1-.69l.75-4.73c.06-.36.1-.72.13-1.09.03-.33.03-.62.03-.85,0-1.31-.49-2.33-1.58-3.05Zm-4.6,8.97c-.33.36-.76.62-1.25.75-.23.03-.46.07-.72.07-.4,0-.72-.1-.95-.29-.23-.2-.36-.46-.36-.79,0-.72.68-1.25,2.03-1.54.85-.16,1.54-.36,2.07-.53-.06.99-.33,1.77-.82,2.33Z"/><polygon class="cls-1" points="243.48 29.92 248.67 29.92 249.46 24.67 244.27 24.67 243.48 29.92"/><path class="cls-1" d="m272.27,12.23h-5.65l-8.67,17.7h5.75l.88-2.13h5.62l.3,2.13h5.31l-3.55-17.7Zm-6.27,12.02l1.81-4.43.88-2.13.96,6.57h-3.65Z"/><polygon class="cls-1" points="278.29 24.67 277.5 29.92 282.69 29.92 283.5 24.67 278.29 24.67"/></g></svg>