<?xml version="1.0" encoding="UTF-8"?><svg id="Capa_2" xmlns="http://www.w3.org/2000/svg" viewBox="0 0 85.04 85.04"><defs><style>.cls-1{fill:#fff;stroke-width:0px;}</style></defs><g id="Capa_1-2"><path class="cls-1" d="m79.15,0c.97.41,2.03.68,2.88,1.24,3.41,2.25,4.01,6.67,1.37,9.85-2.03,2.44-4.11,4.85-6.16,7.27-1.55,1.82-3.11,3.63-4.62,5.48-.25.31-.37.8-.37,1.21-.02,14.14-.01,28.29-.02,42.43,0,3.25-2.01,5.84-5.16,6.64-.74.19-1.53.26-2.3.26-6.02.02-12.04.01-18.05.01h-1.02v5.67c1.42,0,2.88-.02,4.33,0,2.02.04,3.2,2.1,2.17,3.76-.48.77-1.19,1.2-2.13,1.2-9.3,0-18.6.01-27.9,0-1.43,0-2.57-1.17-2.54-2.52.02-1.33,1.13-2.43,2.53-2.45,1.44-.02,2.87,0,4.38,0v-5.67c-.34,0-.68,0-1.01,0-6.13,0-12.27.01-18.4,0-3.54,0-6.3-2.18-7-5.49-.09-.43-.1-.88-.1-1.32C0,54.3,0,41.01,0,27.73c0-3.85,3.03-6.78,7.04-6.78,13.56,0,27.13,0,40.69.01.78,0,1.35-.21,1.93-.68,7.74-6.11,15.51-12.18,23.25-18.29C74.07,1.08,75.32.42,76.73,0,77.53,0,78.34,0,79.15,0Zm-27.09,41.47c0,.39,0,.69,0,.99.16,4.76-2.9,9.04-7.45,10.45-1.98.61-4.01.6-6.06.59-2.73,0-5.39.29-7.68,1.97-.96.7-2.41.47-3.24-.35-.88-.87-1-2.24-.19-3.26.88-1.11,1.45-2.35,1.59-3.71.21-2.06.27-4.13.35-6.2.18-4.74,3.37-8.69,8.13-9.86,1.4-.34,2.88-.37,4.15-.53.47-1.83.95-3.7,1.43-5.59-.01,0-.18-.02-.35-.02-11.78,0-23.56,0-35.34,0-1.61,0-2.22.61-2.22,2.19,0,10.52,0,21.04,0,31.56,0,.29.03.58.04.85h61.71v-30.04c-1.84,2.16-3.62,4.12-5.24,6.19-2.41,3.08-5.5,4.8-9.63,4.77Zm14.82,24.19H5.18c0,.69-.02,1.33,0,1.96.05,1.03.66,1.63,1.72,1.71.34.03.69.02,1.04.02,18.57,0,37.14-.02,55.71.02,3.26,0,3.48-.55,3.31-3.6,0-.02-.03-.04-.09-.11Zm-9.25-45.17c2.06,1.99,4.05,3.9,6.07,5.84.06-.07.18-.19.28-.31,3.28-3.85,6.55-7.71,9.83-11.56,1.84-2.16,3.69-4.32,5.5-6.5.97-1.17.42-2.77-1.04-2.89-.59-.05-1.33.3-1.83.68-3.51,2.69-6.97,5.44-10.44,8.17-2.8,2.2-5.6,4.4-8.36,6.57Zm-23.26,28.14c2.11-.04,4.25-.07,6.39-.14,4.24-.14,6.9-3.45,5.89-7.32-.73-2.8-3.43-4.63-6.61-4.48-2.79.13-4.99,2.03-5.31,4.85-.27,2.37-.25,4.77-.36,7.08Zm25.88-18.14c-2.35-2.26-4.6-4.42-6.93-6.66-1.56,1.27-3.3,2.47-4.78,3.92-1.99,1.93-1.85,5.08.1,7.05,1.93,1.96,5.29,2.26,7.32.42,1.6-1.45,2.9-3.18,4.29-4.73Zm-28.43,49.49h8.55v-5.54h-8.55v5.54Z"/></g></svg>