<?xml version="1.0" encoding="UTF-8"?><svg id="Capa_2" xmlns="http://www.w3.org/2000/svg" viewBox="0 0 196.29 173.23"><defs><style>.cls-1{fill:#fff;stroke-width:0px;}</style></defs><g id="Capa_1-2"><path class="cls-1" d="m0,78.18C0,67.07,0,55.95,0,44.83c.13-.27.31-.54.38-.82,1.96-7.84,8.09-13.16,16.13-13.37,9.7-.25,19.42-.1,29.13-.12.73,0,1.46,0,2.28,0,0-4.17,0-8,0-11.83C47.93,7.96,55.79.03,66.48.02c21.08-.02,42.16-.02,63.24,0,10.73.01,18.61,7.91,18.62,18.62,0,3.88,0,7.77,0,11.89.91,0,1.66,0,2.41,0,9.71.02,19.43-.16,29.13.13,9.42.29,16.36,7.84,16.38,17.28.02,8.82-.07,17.63.03,26.45.07,6.53-2.2,12.1-6.48,16.9-.94,1.05-1.24,2.08-1.23,3.42.03,20.19.02,40.37.02,60.56,0,10.5-7.44,17.95-17.97,17.95-48.36,0-96.72,0-145.08,0-10.39,0-17.88-7.49-17.88-17.85,0-19.42-.04-38.84.04-58.26.01-2.76-.29-5.08-2.37-7.25C2.29,86.65.98,82.44,0,78.18Zm118.07,25.54c3.3-.35,6.27-.65,9.25-.97,10.86-1.17,21.56-3.17,31.93-6.62,7.23-2.4,14.21-5.35,19.99-10.54,3.71-3.33,5.68-7.34,5.58-12.47-.16-8.11-.03-16.22-.05-24.34,0-4.44-2.26-6.67-6.73-6.67-53.28,0-106.55,0-159.83,0-4.46,0-6.71,2.24-6.71,6.69,0,7.79.24,15.6-.08,23.38-.26,6.57,2.57,11.26,7.54,15.02,5.56,4.21,11.9,6.85,18.46,9.02,9.96,3.29,20.23,5.16,30.61,6.45,3.32.41,6.67.64,10.17.97,0-1.89-.01-3.47,0-5.06.03-3.38,2.15-5.86,5.48-5.9,9.64-.1,19.29-.1,28.93,0,3.24.04,5.4,2.51,5.44,5.74.02,1.65,0,3.3,0,5.28Zm-.15,11.65c-3.87,10.24-9.84,15.1-18.56,15.31-4.51.11-8.77-.63-12.58-3.17-4.39-2.92-7.08-7.05-8.3-12.19-20.49-1.78-40.62-4.63-59.3-14.23,0,.84,0,1.35,0,1.86,0,17.31,0,34.63,0,51.94,0,4.45,2.26,6.72,6.72,6.72,48.17,0,96.34,0,144.51,0,4.45,0,6.7-2.29,6.7-6.74,0-17.31,0-34.63,0-51.94,0-.53-.08-1.05-.12-1.66-18.73,9.34-38.79,12.27-59.06,14.1ZM59.44,30.37h77.28c.07-.28.12-.4.12-.52.01-3.32.02-6.64.02-9.96,0-5.9-2.35-8.27-8.19-8.27-20.36,0-40.73,0-61.09,0-.7,0-1.41-.01-2.1.07-3.39.39-5.85,2.74-5.99,6.14-.17,4.14-.04,8.29-.04,12.55Zm30.26,73.93c0,2.02,0,3.86,0,5.7,0,6.67,3.78,9.92,10.41,8.94,3.17-.47,5.68-2.49,6.1-5.69.38-2.91.08-5.91.08-8.95h-16.59Z"/></g></svg>