<?xml version="1.0" encoding="UTF-8"?><svg id="Capa_2" xmlns="http://www.w3.org/2000/svg" xmlns:xlink="http://www.w3.org/1999/xlink" viewBox="0 0 85.75 85.75"><defs><style>.cls-1{fill:url(#Degradado_sin_nombre_12);}.cls-1,.cls-2,.cls-3{stroke-width:0px;}.cls-2{fill:#262626;}.cls-3{fill:none;}.cls-4{clip-path:url(#clippath);}</style><clipPath id="clippath"><circle class="cls-3" cx="42.88" cy="42.88" r="42.88"/></clipPath><linearGradient id="Degradado_sin_nombre_12" x1="-16.72" y1="44.29" x2="66.84" y2="44.29" gradientUnits="userSpaceOnUse"><stop offset="0" stop-color="#574bcd"/><stop offset=".49" stop-color="#2999ad"/><stop offset="1" stop-color="#41e976"/></linearGradient></defs><g id="Capa_1-2"><g class="cls-4"><circle class="cls-2" cx="42.88" cy="42.88" r="42.88"/><path class="cls-1" d="m64.21,20.02c-5.53,3.92-10.91,8.03-16.08,12.41-3.79,3.21-7.49,6.55-11.34,9.69-.37.3-.74.58-1.11.88,1.49-3.55,2.91-7.13,4.27-10.74.01-.03.01-.05.02-.08,0,0,.01,0,.02,0,.25-.08.22-.29.07-.53.03-.9-.52-1.81-1.18-2.4-.52-.46-2.09-1.3-2.51-.2-.01.03-.02.06-.03.09,0,0,0,0,0,0-8.64,2.63-17.24,5.45-26.05,7.48-4.33,1-8.7,1.8-13.12,2.28-2.06.23-4.15.43-6.23.35-1.45-.05-3.92-.3-4.8-1.03-.42-.35-2.08-1.78-2.69-1.44-.61.35.71,1.4.96,1.6,2.81,2.32,5.97,3.64,9.6,3.87,3.55.22,7.19-.3,10.7-.83,7.65-1.15,15.13-3.15,22.53-5.35,2.44-.73,4.86-1.47,7.29-2.22-1.99,5.04-4.11,10.03-6.35,14.97-.56,1.23.98,3.28,2.26,3.72.26.15.51.19.7.05,0,0,0,0,0,0,.19-.05.36-.17.5-.37,8.62-6.3,16.33-13.66,24.71-20.26.44-.35.89-.67,1.33-1.02-5.13,8.91-10.06,17.93-15.43,26.69-1.07,1.74-1.93,3.52-1.56,5.61.36,2.08,1.63,4.39,3.59,5.33.97.47.91-.83.75-1.41-.22-.81-.74-1.89-1.47-2.5.21-.46.29-1.12.52-1.58.47-.96,1.09-1.85,1.64-2.76,1.17-1.9,2.32-3.82,3.45-5.74,1.91-3.24,3.77-6.52,5.6-9.8,3.89-6.94,7.79-13.86,11.98-20.63.57-.92-1.42-4.91-2.53-4.12Z"/></g></g></svg>