<?xml version="1.0" encoding="UTF-8"?><svg id="Capa_2" xmlns="http://www.w3.org/2000/svg" viewBox="0 0 196.26 196.25"><defs><style>.cls-1{fill:#fff;stroke-width:0px;}</style></defs><g id="Capa_1-2"><path class="cls-1" d="m93.5,196.25h-14.56c-.06-.31-.29-.36-.55-.38-9.58-.86-18.81-3.19-27.46-7.35C23.48,175.31,6.78,153.76,1.12,123.74c-.4-2.14-.22-4.38-1.12-6.42v-15.33c.72-1.63.59-3.41.86-5.12,2.4-14.99,8.02-28.64,17.56-40.47,17.47-21.67,40.15-32.92,68.07-33.34,5.3-.08,10.6-.03,15.9,0,.91,0,1.44.02,1.5-1.24.66-14.04,13.88-24.2,27.69-21.34,10.09,2.09,17.74,11,18.21,21.33.06,1.23.54,1.26,1.48,1.26,6.77-.03,13.54.03,20.3-.05,1.34-.01,1.68.32,1.67,1.67-.08,6.77,0,13.54-.06,20.3-.01,1.18.27,1.56,1.47,1.47,1.6-.11,3.15.37,4.69.76,10.64,2.73,17.95,13.47,16.81,24.69-1.11,10.93-10.69,20.08-21.53,20.45-1.21.04-1.45.37-1.44,1.51.06,6.13.06,12.26,0,18.39-.05,4.98-.68,9.92-1.7,14.79-3.23,15.34-10.03,28.91-20.58,40.51-13.56,14.91-30.29,24.16-50.21,27.59-2.4.41-4.87.31-7.2,1.11Zm25.43-161.71h-2.32c-7.6,0-15.2.02-22.79-.03-1.13,0-1.56.19-1.5,1.44.11,2.49.03,4.98.03,7.47q0,2.71,2.75,3.07c.57.08,1.13.21,1.69.32,11.65,2.15,20.15,13.86,18.47,25.45-1.64,11.29-10.28,19.27-21.85,20.11-.81.06-1.09.23-1.08,1.08.05,3.13.08,6.26-.01,9.38-.04,1.29.72,1.06,1.46,1.06,7.02,0,14.05,0,21.07,0h3.94c-.87,2.44-1.66,4.7-2.49,6.96-.85,2.32-1.17,4.64-.62,7.11,1.33,6.03,7.4,9.87,13.71,8.56,5.83-1.21,9.82-7.24,8.67-13.1-.64-3.25-2.24-6.18-3.09-9.52h1.93c7.73,0,15.45-.04,23.18.03,1.35.01,1.67-.33,1.66-1.67-.07-7.66-.04-15.32-.03-22.99,0-.6.06-1.19.09-1.93,2.93,1.04,5.64,2.11,8.42,2.97,7.9,2.44,15.77-4.68,14.21-12.8-1.4-7.26-8.13-11.17-15.12-8.76-2.5.86-4.96,1.81-7.6,2.77,0-8.63-.03-16.99.03-25.35.01-1.33-.3-1.69-1.66-1.68-7.79.07-15.58.04-23.37.02-.59,0-1.24.21-1.88-.25.93-2.64,1.85-5.27,2.79-7.89,1.45-4.06.47-7.66-2.19-10.86-3.4-4.08-9.36-5.1-14.06-2.53-4.79,2.62-7.03,8.01-5.38,13.16.87,2.71,1.88,5.38,2.94,8.37Zm-38.07,26.75c0-8.28-.08-16.38.06-24.48.03-1.91-.67-2.06-2.16-1.84-3.77.55-7.55,1.09-11.23,2.12-22.17,6.19-38.35,19.65-48.6,40.2-3.9,7.81-6.04,16.15-7.03,24.81-.14,1.26-.06,1.98,1.59,1.85,2.28-.18,4.59-.05,6.89-.05q2.72,0,3.08-2.74c.07-.5.21-1,.3-1.5,2.09-11.57,12.44-19.61,24.68-18.67,11.74.9,20.36,10.59,20.89,21.63.06,1.16.45,1.32,1.44,1.3,2.68-.06,5.37-.12,8.04.02,1.6.08,2.13-.25,2.1-2.01-.12-8.1-.05-16.2-.05-24.46,2.4.85,4.67,1.64,6.92,2.47,2.32.84,4.63,1.19,7.11.65,6.03-1.32,9.89-7.35,8.61-13.67-1.18-5.84-7.23-9.87-13.06-8.73-3.25.64-6.19,2.23-9.57,3.11Zm11.5,96.75v1.61c0,7.72.04,15.45-.04,23.17-.01,1.39.38,1.78,1.69,1.56,2.01-.33,4.06-.46,6.05-.87,23.4-4.76,41-17.54,52.63-38.4,4.83-8.66,7.48-18.03,8.62-27.85.17-1.44-.15-2.01-1.74-1.89-2.16.15-4.34.03-6.51.04-1.01,0-2.23-.28-2.98.19-.72.45-.21,1.76-.35,2.69-1.8,12.25-12.31,21.02-24.74,20.08-11.36-.87-20.63-10.17-21.13-21.82-.04-.93-.29-1.17-1.19-1.15-2.94.05-5.87.09-8.81-.01-1.27-.04-1.56.35-1.55,1.58.06,7.66.03,15.32.03,22.98,0,.6,0,1.19,0,1.93-2.53-.91-4.79-1.73-7.05-2.54-2.32-.83-4.65-1.13-7.12-.57-5.92,1.34-9.73,7.36-8.48,13.59,1.18,5.88,7.19,9.93,13.01,8.8,3.3-.64,6.29-2.28,9.64-3.1Zm-54.11-42.64c-8.27,0-16.38.08-24.48-.06-1.9-.03-2.09.67-1.84,2.16.43,2.57.68,5.19,1.26,7.72,5.53,23.79,19.25,41.18,41.07,52.11,7.8,3.91,16.15,6.03,24.8,7.03,1.28.15,1.97.04,1.85-1.6-.18-2.28-.04-4.59-.04-6.89q0-2.7-2.75-3.07c-.5-.07-1-.21-1.5-.3-11.52-2.05-19.61-12.47-18.67-24.69.9-11.73,10.59-20.37,21.64-20.88,1.18-.05,1.31-.47,1.29-1.45-.06-2.68-.12-5.37.02-8.04.09-1.62-.28-2.12-2.02-2.09-8.1.11-16.19.05-24.46.05.86-2.41,1.65-4.67,2.47-6.93.84-2.31,1.19-4.63.65-7.11-1.31-6.04-7.32-9.88-13.67-8.6-5.84,1.18-9.88,7.23-8.73,13.06.64,3.25,2.22,6.19,3.11,9.58Z"/></g></svg>